PathFileType	4	(X/Y/Z)	C:/Users/opensim2020/Desktop/walking_exp_matlab/subject01_walking11_straight_01.trc	
DataRate	CameraRate	NumFrames	NumMarkers	Units	OrigDataRate	OrigDataStartFrame	OrigNumFrames	
100.00	100.00	8	44	mm	100.00	1050	374	
Frame#	Time	LFHD			RFHD			LBHD			RBHD			C7			T10			CLAV			STRN			RBAK			LSHO			LUPA			LELB			LFRM			LWRA			LWRB			LFIN			RSHO			RUPA			RELB			RFRM			RWRA			RWRB			RFIN			LASI			RASI			LPSI			RPSI			LTHI			LKNE			LTIB			LANK			LHEE			LTOE			RTHI			RKNE			RTIB			RANK			RHEE			RTOE			*39			*40			*41			*42			*43			
		X1	Y1	Z1	X2	Y2	Z2	X3	Y3	Z3	X4	Y4	Z4	X5	Y5	Z5	X6	Y6	Z6	X7	Y7	Z7	X8	Y8	Z8	X9	Y9	Z9	X10	Y10	Z10	X11	Y11	Z11	X12	Y12	Z12	X13	Y13	Z13	X14	Y14	Z14	X15	Y15	Z15	X16	Y16	Z16	X17	Y17	Z17	X18	Y18	Z18	X19	Y19	Z19	X20	Y20	Z20	X21	Y21	Z21	X22	Y22	Z22	X23	Y23	Z23	X24	Y24	Z24	X25	Y25	Z25	X26	Y26	Z26	X27	Y27	Z27	X28	Y28	Z28	X29	Y29	Z29	X30	Y30	Z30	X31	Y31	Z31	X32	Y32	Z32	X33	Y33	Z33	X34	Y34	Z34	X35	Y35	Z35	X36	Y36	Z36	X37	Y37	Z37	X38	Y38	Z38	X39	Y39	Z39	X40	Y40	Z40	X41	Y41	Z41	X42	Y42	Z42	X43	Y43	Z43	X44	Y44	Z44	

141	1.400	1453.48157	-455.67560	1676.36353	1563.21008	-427.01331	1685.34033	1477.48083	-556.97821	1607.29822	1594.30444	-528.86011	1614.98938	1506.12402	-559.20990	1431.25415	1503.43701	-600.99677	1140.62671	1501.12427	-415.10431	1363.81860	1491.29565	-376.34253	1205.77539	1579.71216	-615.54297	1237.79309	1342.95581	-477.12750	1399.75378	1253.33362	-520.04529	1220.24463	1251.47424	-547.64319	1073.34436	1219.95898	-529.43060	963.47223	1231.17920	-472.12418	834.68634	1207.18896	-527.07922	841.17450	1196.55701	-492.24747	762.50793	1652.94092	-477.15503	1388.34497	1755.28784	-515.68866	1185.34070	1758.69983	-498.00784	1060.84241	1785.04578	-442.95230	952.00562	1761.93506	-337.27347	859.78180	1800.78748	-379.31311	848.11530	1796.24329	-323.53726	782.71582	1388.69556	-434.65781	933.79590	1605.36035	-434.66251	927.52148	1439.10266	-620.80322	945.03705	1584.25220	-619.80640	946.71552	1310.11975	-397.66907	615.94025	1326.39697	-366.71796	485.88361	1313.55945	-372.62662	301.43082	1355.55688	-331.34363	82.00274	1414.58423	-358.08908	41.56292	1330.57495	-187.36469	79.52934	1650.61829	-510.22363	597.52026	1620.88831	-514.29718	438.93213	1624.88306	-583.21625	275.32669	1568.99951	-625.63367	73.46396	1518.67249	-677.68115	38.15714	1563.56860	-486.50266	32.80791	1543.95813	-449.32281	1715.41382	-3102.05200	1973.03027	1023.98224	-3140.78613	2012.51904	1021.98383						 
142	1.410	1452.17480	-449.69928	1675.74854	1562.05432	-420.94183	1684.84412	1476.28333	-550.91479	1606.76746	1593.10950	-522.84833	1614.48828	1505.17517	-553.24707	1430.66833	1502.67993	-595.11200	1140.03381	1500.07690	-409.29495	1363.21387	1490.40576	-370.45084	1205.21143	1578.92969	-609.65192	1237.27478	1341.93372	-471.39206	1399.04602	1252.41931	-514.51727	1219.58545	1250.58838	-542.09467	1072.75574	1218.98413	-523.87469	962.81860	1229.83484	-466.69247	834.00378	1206.10608	-521.76343	840.50470	1195.46387	-487.03403	762.02789	1651.84436	-471.25876	1387.89941	1754.37463	-509.65076	1184.91455	1757.86157	-491.83722	1060.45020	1784.34253	-436.84311	951.61700	1761.23779	-331.23401	859.28027	1800.10352	-373.26593	847.71021	1795.58313	-317.61859	782.21204	1388.17725	-428.58417	933.08380	1604.94019	-428.89810	927.03046	1438.46057	-614.75745	944.45868	1583.68091	-614.40454	946.81195	1309.62842	-393.05484	614.78741	1326.02820	-361.84412	485.10651	1312.71814	-363.57874	300.72449	1354.57849	-317.06888	82.41555	1413.24158	-343.11859	41.16527	1330.57520	-172.60043	82.91268	1650.31458	-506.21664	597.28137	1620.63843	-511.32867	438.55551	1624.81262	-581.38776	275.57977	1568.99841	-625.55627	73.94342	1518.77698	-677.01074	38.53685	1563.51941	-486.39764	32.76371	1542.76440	-443.25897	1714.86853	-3101.96948	1973.07080	1023.43787	-3140.83325	2012.48474	1022.10419						 
143	1.420	1450.81482	-443.64737	1675.13269	1560.72742	-414.96075	1684.23083	1474.94287	-544.87823	1606.17078	1591.82056	-516.83691	1613.93787	1504.01245	-547.45532	1430.05835	1501.84277	-589.23071	1139.47754	1498.95679	-403.40662	1362.65405	1489.42480	-364.52353	1204.62183	1578.05481	-603.78156	1236.77893	1340.83228	-465.69168	1398.36560	1251.55969	-509.07346	1218.89270	1249.56396	-536.34052	1072.09668	1217.95593	-518.16895	962.15759	1228.63550	-461.07623	833.27368	1204.93982	-516.13409	839.80780	1194.13379	-481.42004	761.24622	1650.77234	-465.33731	1387.40625	1753.41870	-503.64542	1184.45496	1756.94885	-485.77585	1060.00781	1783.49878	-430.84848	951.22351	1760.45605	-325.32404	858.67993	1799.34680	-367.44150	847.22070	1794.87964	-311.83411	781.55579	1387.36426	-422.12567	932.36292	1604.50842	-423.05814	926.53882	1437.63977	-608.69769	943.88013	1582.81018	-608.49091	946.40253	1309.04126	-388.16684	613.72363	1325.60864	-356.81863	484.33530	1311.92102	-354.84094	300.09879	1353.52600	-303.52161	82.52433	1412.07068	-329.04962	40.93064	1330.40051	-158.87576	85.91971	1649.95508	-502.15533	597.10223	1620.34985	-508.20013	438.23459	1624.71521	-579.48706	275.96063	1568.70154	-625.09595	74.26325	1518.47778	-676.79816	39.14479	1563.51062	-486.28967	32.76088	1541.48352	-437.12418	1714.31580	-3101.98804	1973.07422	1023.59174	-3140.79590	2012.54187	1022.01129						 
144	1.430	1449.49011	-437.65213	1674.46997	1559.33704	-408.95551	1683.65198	1473.58093	-538.77765	1605.48547	1590.42566	-510.84744	1613.40955	1502.76526	-541.59918	1429.41211	1500.80859	-583.15033	1138.74597	1497.77454	-397.42908	1362.09534	1488.33521	-358.60019	1204.03223	1577.03796	-597.78699	1236.21399	1339.58337	-459.86734	1397.68359	1250.33667	-503.14093	1218.06653	1248.48145	-530.51477	1071.27124	1216.73389	-512.40564	961.41101	1227.30798	-455.40652	832.41742	1203.82117	-510.38693	839.14191	1192.74243	-475.63531	760.61475	1649.56702	-459.41492	1386.89453	1752.35376	-497.61969	1184.01074	1755.92395	-479.75183	1059.57202	1782.58362	-424.93909	950.70886	1759.62000	-319.55801	857.98322	1798.52917	-361.67764	846.64313	1794.06323	-306.30170	780.83771	1387.15247	-416.09839	931.63977	1604.01172	-417.17838	926.01801	1436.76843	-602.61273	943.34888	1581.91406	-602.47235	946.01770	1308.25195	-382.88333	612.78741	1325.16797	-351.50040	483.52951	1311.05530	-346.54529	299.49954	1352.72363	-291.10654	82.73430	1411.12378	-316.15573	40.71042	1330.01074	-146.31126	88.32140	1649.56433	-498.02292	596.88348	1620.11816	-504.93866	438.01410	1624.48071	-577.51031	276.15689	1568.75769	-624.97546	74.78407	1518.31812	-677.33539	40.67284	1563.51318	-486.15854	32.73651	1540.08838	-431.12115	1713.70093	-3101.94922	1973.17346	1023.42053	-3140.64331	2012.54089	1022.01819						 
145	1.440	1447.98181	-431.52597	1673.87402	1557.88489	-402.99207	1683.04846	1472.00635	-532.84760	1604.90112	1588.87842	-504.91693	1612.79187	1501.37378	-535.66089	1428.75806	1499.77148	-577.15118	1138.15601	1496.37988	-391.56796	1361.46301	1487.14819	-352.60623	1203.47693	1575.90149	-591.87634	1235.67383	1338.23621	-454.05820	1396.98645	1249.11829	-497.26764	1217.27808	1247.31348	-524.27887	1070.66589	1215.55396	-506.48224	960.64917	1226.28552	-449.34506	831.77185	1202.53601	-504.30573	838.41022	1191.36938	-469.63507	759.88989	1648.23254	-453.41339	1386.38257	1751.15259	-491.63611	1183.50647	1754.75134	-473.76486	1059.09875	1781.54858	-419.15555	950.18140	1758.71338	-313.93530	857.22528	1797.59131	-356.16281	845.95422	1793.17017	-300.91650	780.02429	1386.53625	-409.81998	930.93097	1603.44702	-411.22400	925.52374	1435.76978	-596.33832	942.61731	1580.83545	-596.24194	945.38635	1307.35583	-377.27332	611.89093	1324.77478	-346.01749	482.86221	1310.20837	-338.75671	298.96280	1351.93311	-280.03964	82.90301	1410.23169	-304.40427	40.58099	1329.35742	-135.20361	90.25891	1649.06189	-493.79706	596.60278	1619.90369	-501.57065	437.77264	1624.36914	-575.51587	276.44449	1568.76501	-624.46149	75.47506	1518.43164	-676.62787	40.96526	1563.50647	-486.15771	32.67855	1538.53650	-425.24707	1713.07776	-3101.81226	1973.16248	1023.48248	-3140.71045	2012.55762	1022.09827						 
146	1.450	1446.44653	-425.52249	1673.28406	1556.32312	-397.06924	1682.49219	1470.33411	-526.82642	1604.26111	1587.25159	-499.00247	1612.16699	1499.92920	-529.67316	1428.12158	1498.55823	-571.01202	1137.45398	1494.87366	-385.56882	1360.83545	1485.89819	-346.48950	1202.89111	1574.60681	-585.78186	1235.09021	1336.74390	-448.19739	1396.23645	1247.76721	-491.30084	1216.40771	1246.07703	-518.33173	1069.75574	1214.29077	-500.33652	959.80127	1224.64917	-443.16071	830.90155	1201.39282	-498.20798	837.56543	1189.87183	-463.40839	759.18854	1646.75330	-447.37701	1385.86609	1749.87085	-485.64648	1183.05347	1753.54846	-467.80997	1058.64221	1780.44824	-413.49918	949.67798	1757.82959	-308.48474	856.46399	1796.63452	-350.66946	845.33063	1792.20227	-295.74237	779.14392	1385.60242	-403.19965	930.18121	1602.81958	-405.22311	925.02570	1434.73145	-590.09259	942.01898	1579.68970	-590.19739	945.01331	1306.41650	-371.27573	611.15576	1324.33496	-340.35889	482.20599	1309.53479	-331.42679	298.32669	1350.99023	-269.90186	82.83129	1409.44324	-293.96677	40.31261	1328.44067	-125.04802	91.60715	1648.67883	-489.47021	596.49799	1619.58984	-498.25342	437.39090	1624.16772	-573.59637	276.76849	1568.77759	-624.15851	76.07075	1518.36670	-676.17401	41.66837	1563.50659	-486.11258	32.67005	1536.97144	-419.32489	1712.50354	-3101.88281	1973.12671	1023.50104	-3140.69092	2012.49426	1021.99811						 
147	1.460	1444.67517	-419.59195	1672.67358	1554.62549	-391.17059	1681.91895	1468.57983	-520.85657	1603.64941	1585.50671	-493.09830	1611.56274	1498.36255	-523.60632	1427.49548	1497.26416	-564.85864	1136.80054	1493.36157	-379.52594	1360.25586	1484.50476	-340.37323	1202.33496	1573.18176	-579.73376	1234.52673	1335.16455	-442.25214	1395.55237	1246.50085	-485.43307	1215.57080	1244.73242	-512.03589	1068.91467	1212.93872	-494.17108	959.00476	1223.54883	-436.79623	830.12311	1200.11182	-491.88965	836.72577	1188.40393	-456.95517	758.50848	1645.23804	-441.32513	1385.39758	1748.44470	-479.64203	1182.62317	1752.16809	-461.91431	1058.25012	1779.24573	-407.89429	949.14056	1756.78125	-303.19098	855.63623	1795.53467	-345.40884	844.59705	1791.18811	-290.73001	778.21588	1384.86462	-396.68106	929.50269	1602.12805	-399.14005	924.52075	1433.59814	-583.74921	941.36206	1578.86719	-584.70007	945.24457	1305.73474	-364.87814	610.50641	1323.85681	-334.38037	481.58044	1308.86401	-324.46869	297.69141	1350.29626	-261.25900	82.67422	1408.74512	-284.76401	39.98012	1327.41858	-116.39072	92.33074	1648.19678	-485.02310	596.35760	1619.33521	-494.80524	437.12708	1623.98718	-571.61072	277.20526	1568.76941	-623.84503	76.67815	1518.45557	-676.27753	43.14388	1563.56909	-486.01160	32.67532	1535.28760	-413.35367	1711.95679	-3101.88989	1973.16809	1023.46094	-3140.76538	2012.54138	1022.02570						 
148	1.470	1442.88843	-413.64960	1672.08704	1552.84265	-385.30801	1681.34424	1466.73926	-514.69348	1602.90552	1583.62170	-487.22214	1610.94312	1496.65076	-517.59637	1426.91870	1495.89087	-558.66443	1136.13684	1491.69519	-373.44522	1359.71008	1483.01746	-334.20844	1201.74780	1571.62292	-573.58276	1233.96826	1333.43713	-436.26083	1394.78210	1244.92700	-479.09683	1214.72668	1243.30334	-505.60980	1068.15002	1211.48792	-487.70352	958.09351	1222.31262	-430.23471	829.37616	1198.64465	-485.20822	835.93530	1186.89172	-450.30090	757.77039	1643.51099	-435.22452	1384.91675	1746.89746	-473.56580	1182.21155	1750.72864	-456.07333	1057.84509	1777.94629	-402.42416	948.62781	1755.66638	-297.97693	854.75885	1794.37354	-340.34326	843.87482	1790.07288	-285.86856	777.29907	1384.30994	-390.39597	928.83887	1601.35046	-392.93753	923.95129	1432.39661	-577.28992	940.69153	1577.11694	-577.75446	943.99371	1305.29504	-358.08392	609.95776	1323.36963	-328.10965	480.95059	1308.21777	-317.79135	297.00272	1349.68494	-253.68524	82.43571	1408.11731	-276.97556	39.48642	1326.40881	-108.89243	92.48060	1647.60181	-480.48010	596.08698	1619.10901	-491.21030	436.88846	1623.88489	-569.42554	277.65701	1568.84619	-623.67523	77.37347	1518.55017	-676.51587	44.65784	1563.61011	-485.96774	32.61992	1533.42419	-407.60333	1711.35120	-3102.01709	1973.18311	1023.42725	-3140.72754	2012.48987	1022.08160						 
